
<svg xmlns="http://www.w3.org/2000/svg" viewBox="0 0 600 360" width="600" height="360">
  <defs>
    <linearGradient id="ecs_bg" x1="0" y1="0" x2="0" y2="1">
      <stop offset="0%" stop-color="#001B33"></stop><stop offset="100%" stop-color="#020617"></stop>
    </linearGradient>
    <pattern id="ecs_grid" width="24" height="24" patternUnits="userSpaceOnUse">
      <path d="M 24 0 L 0 0 0 24" fill="none" stroke="#0086FF" stroke-width="0.4" opacity=".15"></path>
    </pattern>
  </defs>
  <rect width="600" height="360" fill="url(#ecs_bg)"></rect>
  <rect width="600" height="360" fill="url(#ecs_grid)"></rect>

  <text x="40" y="44" font-family="ui-monospace, monospace" font-size="10" fill="#93EAFF" letter-spacing="2">CASE STUDY</text>
  <text x="40" y="68" font-family="var(--font-sans), system-ui" font-size="22" fill="#E2E8F0" font-weight="700">ECS → EKS</text>

  
  <g transform="translate(60 130)" opacity=".55">
    <rect width="180" height="170" rx="10" fill="#0A0F1C" stroke="rgba(50,108,229,.4)" stroke-width="1"></rect>
    <text x="90" y="22" text-anchor="middle" font-family="ui-monospace, monospace" font-size="9" fill="#94A3B8" letter-spacing="2">BEFORE · ECS</text>
    
    <g fill="#020617" stroke="rgba(50,108,229,.5)">
      <rect x="20" y="36" width="42" height="42" rx="3"></rect>
      <rect x="68" y="36" width="42" height="42" rx="3"></rect>
      <rect x="116" y="36" width="42" height="42" rx="3"></rect>
      <rect x="20" y="84" width="42" height="42" rx="3"></rect>
      <rect x="68" y="84" width="42" height="42" rx="3"></rect>
      <rect x="116" y="84" width="42" height="42" rx="3"></rect>
    </g>
    <text x="90" y="150" text-anchor="middle" font-family="ui-monospace, monospace" font-size="8" fill="#4B5873">CloudWatch · ECS Tasks</text>
  </g>

  
  <g transform="translate(280 200)">
    <line x1="0" y1="15" x2="40" y2="15" stroke="#93EAFF" stroke-width="2"></line>
    <polygon points="40,8 52,15 40,22" fill="#93EAFF"></polygon>
    <text x="26" y="-2" text-anchor="middle" font-family="ui-monospace, monospace" font-size="8" fill="#93EAFF" letter-spacing="1">MIGRATE</text>
  </g>

  
  <g transform="translate(360 130)">
    <rect width="180" height="170" rx="10" fill="#0A0F1C" stroke="#93EAFF" stroke-width="1.5"></rect>
    <text x="90" y="22" text-anchor="middle" font-family="ui-monospace, monospace" font-size="9" fill="#93EAFF" letter-spacing="2">AFTER · EKS</text>
    
    <g transform="translate(90 90)">
      <polygon points="0,-46 40,-23 40,23 0,46 -40,23 -40,-23" fill="none" stroke="#93EAFF" stroke-width="1.5"></polygon>
      <g fill="#0086FF">
        <circle cx="0" cy="-22" r="4"></circle>
        <circle cx="20" cy="-10" r="4"></circle>
        <circle cx="20" cy="10" r="4"></circle>
        <circle cx="0" cy="22" r="4"></circle>
        <circle cx="-20" cy="10" r="4"></circle>
        <circle cx="-20" cy="-10" r="4"></circle>
        <circle cx="0" cy="0" r="6"></circle>
      </g>
      <g stroke="#0086FF" stroke-width="0.8" opacity=".6" fill="none">
        <line x1="0" y1="0" x2="0" y2="-22"></line>
        <line x1="0" y1="0" x2="20" y2="-10"></line>
        <line x1="0" y1="0" x2="20" y2="10"></line>
        <line x1="0" y1="0" x2="0" y2="22"></line>
        <line x1="0" y1="0" x2="-20" y2="10"></line>
        <line x1="0" y1="0" x2="-20" y2="-10"></line>
      </g>
    </g>
    <text x="90" y="150" text-anchor="middle" font-family="ui-monospace, monospace" font-size="8" fill="#4B5873">LGTM · ArgoCD</text>
  </g>

  <text x="40" y="338" font-family="ui-monospace, monospace" font-size="9" fill="#4B5873">// container-native · gitops · observability built-in</text>
</svg>